<?xml version="1.0" encoding="UTF-8"?>
<svg id="Layer_1" data-name="Layer 1" xmlns="http://www.w3.org/2000/svg" viewBox="0 0 32 32">
  <defs>
    <style>
      .cls-1 {
        fill: #edd6a7;
      }
    </style>
  </defs>
  <rect class="cls-1" width="32" height="32" rx="3" ry="3"/>
  <g>
    <polygon points="28.37 18.38 24.25 18.38 24.25 20.76 22.19 21.95 24.25 25.53 28.38 23.15 28.38 18.38 28.38 18.38 28.37 18.38"/>
    <polygon points="7.75 6.47 7.75 6.47 3.62 8.85 3.62 13.62 7.75 13.62 7.75 11.23 9.81 10.04 7.75 6.47 7.75 6.47"/>
    <polygon points="16 1.71 11.87 4.09 11.87 4.09 13.94 7.66 16 6.47 18.06 7.66 20.13 4.09 20.12 4.09 16 1.71"/>
    <polygon points="7.75 18.38 3.62 18.38 3.62 18.38 3.62 23.14 7.75 25.53 9.81 21.95 7.75 20.76 7.75 18.38"/>
    <polygon points="24.25 6.47 24.25 6.47 22.19 10.04 24.25 11.23 24.25 13.62 28.38 13.62 28.38 8.85 24.25 6.47"/>
    <polygon points="16 25.53 13.94 24.34 11.87 27.91 11.87 27.91 11.87 27.91 16 30.29 20.13 27.91 20.13 27.91 18.06 24.34 16 25.53"/>
    <polygon points="16 11.23 11.87 13.62 11.87 18.38 16 20.76 20.13 18.38 20.13 13.62 16 11.23 16 11.23"/>
  </g>
</svg>