<?xml version="1.0" encoding="UTF-8"?>
<svg id="Layer_1" data-name="Layer 1" xmlns="http://www.w3.org/2000/svg" viewBox="0 0 32 32">
  <defs>
    <style>
      .cls-1 {
        fill: #edd6a7;
      }
    </style>
  </defs>
  <polygon class="cls-1" points="29.85 18.66 25.24 18.66 25.24 21.33 22.93 22.66 25.24 26.66 29.85 24 29.86 18.67 29.85 18.67 29.85 18.66"/>
  <polygon class="cls-1" points="6.76 5.33 6.76 5.33 2.14 8 2.14 13.33 6.76 13.33 6.76 10.66 9.07 9.33 6.76 5.33 6.76 5.33"/>
  <polygon class="cls-1" points="16 0 11.38 2.66 11.38 2.66 13.69 6.66 16 5.33 18.31 6.66 20.62 2.66 20.61 2.66 16 0"/>
  <polygon class="cls-1" points="6.76 18.66 2.15 18.66 2.14 18.66 2.14 24 6.76 26.66 9.07 22.66 6.76 21.33 6.76 18.66"/>
  <polygon class="cls-1" points="25.24 5.33 25.24 5.33 22.93 9.33 25.24 10.66 25.24 13.33 29.86 13.33 29.86 8 25.24 5.33"/>
  <polygon class="cls-1" points="16 26.67 13.69 25.33 11.38 29.33 11.38 29.33 11.38 29.33 16 32 20.62 29.33 20.62 29.33 18.31 25.33 16 26.67"/>
  <polygon class="cls-1" points="16 10.66 11.38 13.33 11.38 18.66 16 21.33 20.62 18.66 20.62 13.33 16 10.66 16 10.66"/>
</svg>