<?xml version="1.0" encoding="UTF-8"?>
<svg id="BG" xmlns="http://www.w3.org/2000/svg" viewBox="0 0 566.92 751.39">
  <defs>
    <style>
      .cls-1 {
        fill: none;
        stroke: #edd6a7;
        stroke-miterlimit: 10;
      }
    </style>
  </defs>
  <polygon class="cls-1" points="212.64 671.98 209.87 676.09 208.77 688.2 198.64 699.87 193.37 711.52 189.84 712.42 187.63 717.04 177.95 730.91 170.9 739.94 155.05 755.69 0 755.69 0 480.56 6.86 476.16 14.79 476.16 22.72 474.84 30.64 474.84 40.77 477.7 63.01 484.53 75.78 488.49 88.55 494.21 98.9 500.16 104.85 505.22 113.87 515.13 126.64 530.55 135.01 540.23 139.85 547.94 143.72 553.89 143.6 570.18 142.77 586.86 142.37 591.66 144.7 593.52 151.52 593.52 153.51 599.24 155.49 601.22 157.91 603.65 162.31 606.07 166.06 607.17 168.48 613.33 170.9 621.48 173.1 626.1 176.18 629.19 184.11 639.1 184.11 641.96 192.92 647.9 197.32 651.65 203.05 656.93 207.67 660.45 209.65 667.72 212.64 671.98"/>
  <path class="cls-1" d="M148.22,473.3l-9.03-6.39-14.09-10.35-10.13-5.94-9.6-6.89-3.61-2.58-15.41-5.89-12.77-2.92-5.29-1.98v-3.08l-3.74-2.2-5.72-1.54v-1.99l-5.73-3.52-3.52-2.64,9.25-7.71h-7.93l-1.32-6.16-24.22-2.64-14.97,5.28L0,412.97v67.59l6.86-4.4h7.93l7.93-1.32h7.92l10.13,2.86,22.24,6.83,12.77,3.96,12.77,5.72,10.35,5.95,5.95,5.06,9.02,9.91,12.77,15.42,8.37,9.68,4.84,7.71,3.87,5.95.04-5.18,2.81-24.61,3.14-15.19,5.45-15.52,3.97-9.42-10.91-10.67ZM41.87,420.45l-10.79,9.25-5.94,5.56-6.61,1.33h-9.24l-5.07-2.68v-14.56l4.63-7.04,8.8-5.73h5.4l6.71,4.63,12.11,5.94v3.3Z"/>
  <path class="cls-1" d="M281.21,188.38l-2.64-8.37-11.89-12.33-8.37-12.33-9.24-6.16-6.61-8.81-8.37-.44-4.4-14.09-7.05-8.37h-11.45l-21.13,2.64h-12.77l-14.1-2.64h-8.36l-11.89,4.4-18.5-4.4-12.33,4.4-4.84,6.17-12.33,2.64-22.02,13.21-7.93,10.57-7.48,12.77-12.33,11.89v21.14l-4.85,14.53-3.08,7.93-2.64,12.77v7.93l7.92,11.89,8.81,15.41,3.96,9.25,5.29,10.12,4.4,6.61s-3.96,8.81-3.96,10.13-4.4,23.78-4.4,23.78l10.12-3.52,1.32,3.52-1.32,9.25,4.41,10.12,8.36-12.6.88,6,2.21,6.6v6.17l4.84-3.08-5.72,22.46-11.01,22.01-11.89,10.13-9.25,7.71,3.52,2.64,5.73,3.52v1.99l5.72,1.54,3.74,2.2v3.08l5.29,1.98,12.77,2.92,15.41,5.89,3.61,2.58h13.95l15.2,1.27,11.72-2.8,6.11-3.31,10.24-2.3h7.43l4.29-2.68,3.97,1.35,5.17-1.35,8.7-13.68-.17-2.14.5-3.97,4.79-6.44,10.73-9.74,1.16-4.95-7.27-3.14-.33-2.64.33-6.11,1.98-4.63-.79-4.13-4.49-11.89-1.32-10.4,1.98-10.4,5.28-12.22,11.56-16.19,10.9-11.89,10.24-7.92,12.06-5.95,17.83-6.11,3.96-3.36-3.96-5.28,10.13-14.97.88-6.61-.44-13.21,3.08-12.33,2.69-13.21v-13.65l-2.25-8.37Z"/>
  <path class="cls-1" d="M405.01,332.05l-2.97-3.3.8-3.43,1.51-6.48-.83-10.24-1.48-6.44-4.46-10.4-1.63-2.03-6.46-8.05-6.94-3.96-10.24-.17-5.78,2.32-4.46-2.15-6.6.16-5.12,2.15-13.05-1.48-11.23-1.66-5.44,1.49-10.9.17-9.42,1.32-8.09-2.98-12.71-1.32-8.43.44-3.96,3.36-17.83,6.11-12.06,5.95-10.24,7.92-10.9,11.89-11.56,16.19-5.28,12.22-1.98,10.4,1.32,10.4,4.49,11.89.79,4.13-1.98,4.63-.33,6.11.33,2.64,7.27,3.14-1.16,4.95-10.73,9.74-4.79,6.44-.5,3.97.17,2.14-8.7,13.68-2.53,3.99-12.39,23.78-9.4,22.29-3.97,9.42-5.45,15.52-3.14,15.19-2.81,24.61-.04,5.18-.12,16.29-.83,16.68-.4,4.8,2.33,1.86h6.82l1.99,5.72,1.98,1.98v-11.23l1.1-19.37,1.98-26.42,2.64-23.12s5.51-20.48,5.73-21.36c.07-.26.96-2.34,2.19-5.14,2.92-6.64,7.72-17.32,7.72-17.32l10.78-21.36,8.81-9.46,10.28-9.85,1.6-2.01,2.65-3.34,3.09-1.76,1.32-5.28,7.26-7.27,10.35-7.69,1.98-2.66h12.55l7.71,6.39,3.3,5.28h6.83l4.95,2.54,4.08-3.64,5.94-8.81,7.27-8.58,7.92-7.71,12.11-5.72,6.61-1.77,10.35.88,2.42,3.53v3.74l-.88,5.73-1.54,3.96,4.4,3.74,5.34,2.2,1.16-2.14,1.32-6.77,3.96,2.14,6.28,1.16,7.43-2.31,5.45-4.3,6.44-.33,8.92-2.14,10.73-7.93.52-.8,4.76-7.29,5.85-6.61,1.75-1.98.99-8.42,1.49-1.82,1.15-14.2,1.65-1.98,1.82-3.96.17-4.3-1.16-2.31ZM277.47,296.71l-2.42,8.42-4.96,6.11-2.97,6.61-6.27,11.39-4.63,8.15-3.14,8.06v2.12l-2.69,6.61-3.75,4.4-5.97,3.75h-33.95l-.39-1.44h-.01l-1.29-4.73-1.16-10.71,5.34-12.24,5.07-10.41,10.57-15.74,9.02-6.95,9.47-7.53,9.74-4.9,10.08-2.69,8.36,1.03,5.95,4.75v5.94ZM359.6,321.81l-2.15-1.32-1.82-3.14-3.3-1.32-2.48.83-3.13,2.31-4.63,1.98-5.45,1.65h-5.94l-2.81-1.81-4.71-3.64-2.72-6.44v-11.06l2.31-6.28,3.14-6.77,8.26-1.81h7.92l6.11,1.81s4.63,3.14,5.12,3.64c.5.49,3.14,4.12,3.31,4.62.16.49,4.78,6.27,5.44,7.27.67.99,3.8,4.95,3.91,5.61.11.66,1.38,4.46,1.54,4.95.17.5.83,5.95.83,5.95,0,0-1.49,2.15-2.37,2.64-.88.5-3.74,1.32-3.74,1.32l-2.64-.99ZM376.44,372.34c-.22.66,0,5.18,0,5.18l-1.87,3.08-1.98,1.76h-3.41l-3.2-1.98-2.31-2.97v-6.5l.77-4.07,2.64-4.51,1.1-1.44,3.64-1.21s2.42,1.32,2.75,1.76c.33.44,1.21,4.74,1.32,5.18.11.44.77,5.06.55,5.72ZM379.08,307.94c0,.83-2.59,3.3-2.59,3.3l-1.53-1.32s-.45-.67-.98-1.52h0c-.75-1.22-1.65-2.78-1.61-3.27.05-.82-3.19-3.3-3.19-3.3l-3.2-5.62,2.37-3.63h3.3c.83,0,2.31,1.16,3.47,1.82.26.15.55.4.85.69h0c1.03,1.02,2.12,2.61,2.12,2.61l.99,4.63v5.61Z"/>
  <polygon class="cls-1" points="277.47 290.77 268.77 291.84 260.52 295.09 256.55 303.89 251.71 313.06 247.3 320.82 239.05 330.4 231.78 345.45 224.18 354.84 217.91 357.81 206.33 360.89 206.32 360.89 205.03 356.16 203.87 345.45 209.21 333.21 214.28 322.8 224.85 307.06 233.87 300.11 243.34 292.58 253.08 287.68 263.16 284.99 271.52 286.02 277.47 290.77"/>
  <polygon class="cls-1" points="277.47 290.77 277.47 296.71 275.05 305.13 270.09 311.24 261.51 311.24 236.07 347.57 253.08 347.57 250.39 354.18 246.64 358.58 240.67 362.33 206.72 362.33 206.33 360.89 217.91 357.81 224.18 354.84 231.78 345.45 239.05 330.4 247.3 320.82 251.71 313.06 256.55 303.89 260.52 295.09 268.77 291.84 277.47 290.77"/>
  <polygon class="cls-1" points="339.29 439.88 336.98 443.35 336.97 443.35 336.97 443.36 334.99 446.33 330.86 450.95 332.02 454.25 331.52 460.36 328.72 465.81 324.09 472.58 321.95 478.36 320.13 482.49 316 486.45 312.2 488.27 305.6 498.67 302.63 505.28 301.47 514.2 300.64 535 301.14 553.99 301.36 558.28 303.45 598.91 307.08 647.96 307.83 664.88 308.24 674.21 309.07 704.77 308.24 731.19 307.08 755.69 155.05 755.69 170.9 739.94 177.95 730.91 187.63 717.04 189.84 712.42 193.37 711.52 198.64 699.87 208.77 688.2 209.87 676.09 212.64 671.98 217.14 665.3 226.83 639.32 235.85 606.73 240.48 579.43 243.52 553.89 245.54 536.93 245.76 525.26 244.66 516.23 243.34 494.21 243.12 478.14 245.32 470.21 245.32 463.83 238.94 451.94 238.72 435.43 238.72 419.35 237.62 406.58 247.52 406.58 255.23 412.97 258.53 418.25 265.36 418.25 270.31 420.79 274.39 417.15 280.33 408.34 287.6 399.76 295.52 392.05 307.63 386.33 314.24 384.56 324.59 385.44 327.01 388.97 327.01 392.71 326.13 398.44 324.59 402.4 328.99 406.14 334.33 408.34 338.46 412.97 338.63 417.1 333.51 424.03 332.52 427.33 335.65 429.98 338.63 433.44 339.29 439.88"/>
  <line class="cls-1" x1="142.37" y1="591.66" x2="142.36" y2="591.81"/>
  <polygon class="cls-1" points="183.45 433.91 180.92 437.9 168.53 461.68 159.13 483.97 148.22 473.3 139.19 466.91 125.1 456.56 114.97 450.62 105.37 443.73 119.32 443.73 134.52 445 146.24 442.2 152.35 438.89 162.59 436.59 170.02 436.59 174.31 433.91 178.28 435.26 183.45 433.91"/>
  <polyline class="cls-1" points="251.71 433.91 259.63 429.7 266.24 424.42 270.31 420.79"/>
  <polyline class="cls-1" points="193.37 711.52 191.38 715.94 191.6 728.93 192.92 745 194.9 751.39"/>
  <polyline class="cls-1" points="125.1 569.74 135.89 580.31 135.89 586.47 142.37 591.66"/>
  <path class="cls-1" d="M221.54,461.63v17.61l-1.1,15.34-5.51,19.78-8.21,4.74-10.17,1.76-7.45-1.12h-.01l-5.42-6.81-14.54-18.35c2.92-6.64,7.72-17.32,7.72-17.32l10.78-21.36,8.81-9.46,10.28-9.85,1.6-2.01,9.26,14.5,3.96,12.55Z"/>
  <polygon class="cls-1" points="245.76 525.26 245.54 536.93 243.52 553.89 237.62 558.51 230.84 560.05 227.27 556.97 221.32 551.9 217.14 544.42 213.62 542.66 210.53 539.35 207.67 535.39 203.08 531.87 200.18 531.87 194.02 525.92 189.1 519.74 196.55 520.86 206.72 519.1 214.93 514.36 220.44 494.58 221.54 479.24 221.54 461.63 217.58 449.08 208.32 434.58 210.97 431.24 214.06 429.48 215.38 424.2 222.64 416.93 232.99 409.24 234.97 406.58 237.62 406.58 238.72 419.35 238.72 435.43 238.94 451.94 245.32 463.83 245.32 470.21 243.12 478.14 243.34 494.21 244.66 516.23 245.76 525.26"/>
  <path class="cls-1" d="M243.52,553.89l-3.04,25.54-4.63,27.3-9.02,32.59-9.69,25.98-4.5,6.68-2.99-4.26-1.98-7.27-4.62-3.52-5.73-5.28-4.4-3.75-8.81-5.94v-2.86l-7.93-9.91-3.08-3.09-2.2-4.62-2.42-8.15-2.42-6.16-3.75-1.1-4.4-2.42-2.42-2.43v-11.23l1.1-19.37,1.98-26.42,2.64-23.12s5.51-20.48,5.73-21.36c.07-.26.96-2.34,2.19-5.14l14.54,18.35,5.42,6.81h.01l4.92,6.18,6.16,5.95h2.9l4.59,3.52,2.86,3.96,3.09,3.31,3.52,1.76,4.18,7.48,5.95,5.07,3.57,3.08,6.78-1.54,5.9-4.62Z"/>
  <polyline class="cls-1" points="174.31 433.91 174.97 428.66 179.93 420.23 182.13 416.49 183.23 412.09 183.23 402.4 185.21 397.55 191.38 392.49 194.46 387.43 194.46 383.02 196.55 377.3 203.87 376.47"/>
  <polygon class="cls-1" points="319.08 615.32 319.08 638.44 317.76 645.7 315.78 650.99 311.6 656.27 307.83 664.88 307.08 647.96 303.45 598.91 301.36 558.28 307.63 568.64 311.82 575.9 313.8 584.71 313.8 595.28 315.78 608.05 319.08 615.32"/>
  <path class="cls-1" d="M372.37,368.93v3.52l-1.43,3.97s-1.54,1.98-1.98,2.31c-.44.33-2.98,1.65-2.98,1.65l-2.31-2.97v-6.5l.77-4.07,2.64-4.51,3.64,2.86,1.65,3.74Z"/>
  <path class="cls-1" d="M376.44,372.34c-.22.66,0,5.18,0,5.18l-1.87,3.08-1.98,1.76h-3.41l-3.2-1.98s2.54-1.32,2.98-1.65c.44-.33,1.98-2.31,1.98-2.31l1.43-3.97v-3.52l-1.65-3.74-3.64-2.86,1.1-1.44,3.64-1.21s2.42,1.32,2.75,1.76c.33.44,1.21,4.74,1.32,5.18.11.44.77,5.06.55,5.72Z"/>
  <path class="cls-1" d="M368.35,318.84s-1.49,2.15-2.37,2.64c-.88.5-3.74,1.32-3.74,1.32l-2.64-.99-2.15-1.32-1.82-3.14-3.3-1.32-2.48.83-3.13,2.31-4.63,1.98-5.45,1.65h-5.94l-2.81-1.81-4.71-3.64-2.72-6.44v-11.06l2.31-6.28,3.14-6.77,8.26-1.81h7.92l6.11,1.81s4.63,3.14,5.12,3.64c.5.49,3.14,4.12,3.31,4.62.16.49,4.78,6.27,5.44,7.27.67.99,3.8,4.95,3.91,5.61.11.66,1.38,4.46,1.54,4.95.17.5.83,5.95.83,5.95Z"/>
  <path class="cls-1" d="M376.49,297.37v2.86l-1.15,3.66-1.36,4.5c-.75-1.21-1.65-2.77-1.61-3.26.05-.82-3.19-3.3-3.19-3.3l-3.2-5.62,2.37-3.63h3.3c.83,0,2.31,1.16,3.47,1.82.26.15.55.4.85.69h0s.52,2.28.52,2.28Z"/>
  <path class="cls-1" d="M379.08,302.33v5.61c0,.83-2.59,3.3-2.59,3.3l-1.53-1.32s-.45-.67-.98-1.52h0s1.36-4.51,1.36-4.51l1.15-3.66v-2.86l-.52-2.27c1.03,1.01,2.12,2.6,2.12,2.6l.99,4.63Z"/>
  <polygon class="cls-1" points="41.87 417.15 41.87 420.45 31.08 429.7 25.14 435.26 18.53 436.59 9.29 436.59 4.22 433.91 4.22 419.35 8.85 412.31 17.65 406.58 23.05 406.58 29.76 411.21 41.87 417.15"/>
  <path class="cls-1" d="M464.96,311.24l-3.64-2.14s-2.97-1.66-3.8-2.15c-.82-.5-3.79-3.06-3.79-3.06l-3.97-5.2v-3.6s-1.65-2.84-2.14-3.33-1.49-3.47-1.49-3.47v-2.48l-2.31-4.13-4.3-7.1-2.64-.16-4.95-.5s-5.45-.82-5.95-.99c-.49-.16-4.95-1.16-4.95-1.16l-6.77-.99-7.43,1.49-3.8,3.14-4.13,5.78-2.95,8.54,1.63,2.03,4.46,10.4,1.48,6.44.83,10.24-1.51,6.48,2.17,2.27,3.96,1.16,7.77.33,5.61-1.32.5-1.66.66-3.3.16-6.77-.66-1.98s-.66-5.95-.66-6.44.5-3.72.5-3.72l1.65-3.05,5.45-1.49s1.65.33,2.47.83c.83.49,1.65,2.97,1.65,3.71v4.51c0,1.12.5,2.02.5,2.02l2.97,2.31,1.16,3.8s.16,5.78.33,6.27c.16.5.49,6.44.49,6.44,0,0,2.32,1.82,2.65,2.31.33.5,2.64,1.66,2.64,1.66l.82-4.46,2.48-3.47s2.81-.5,3.3-.5,4.46,2.48,4.46,2.48l2.98-.82,3.96-1.82,3.63-4.46v-5.45l-1.48-3.47ZM412.94,301.33c-.09.33-1.32,2.56-1.32,2.56l-2.4,1.24h-2.31s-1.73-.74-2.06-1.24c-.33-.49-1.33-1.32-1.49-1.9-.17-.57,0-2.22,0-2.22l.16-2.65,3.72-2.03s2.97.71,2.99.79c.01.09,1.47,1.16,1.47,1.16,0,0,.82,1.4.99,1.82.16.41.33,2.14.25,2.47ZM418.22,284.82c0,.25-1.07,3.22-1.15,3.47-.09.25-1.82,2.06-1.82,2.06l-2.97,1.49h-3.88l-3.06-1.4-2.48-1.82-.74-5.12,1.4-3.88,3.06-2.48,4.71-1.9s3.3.91,3.55,1.08c.24.16,2.31,2.47,2.31,2.47,0,0,.82,1.98,1.07,2.4.25.41,0,3.38,0,3.63ZM436.88,289.69l-1.98,1.08-3.71-.5-1.16-2.81-.74-2.14.99-2.23,2.39-1.82s3.39.25,3.72.41c.33.17,1.07,1.65,1.15,1.86.09.21,1.08,3.43,1.08,3.92s-1.74,2.23-1.74,2.23Z"/>
  <path class="cls-1" d="M418.22,284.82c0,.25-1.07,3.22-1.15,3.47-.09.25-1.82,2.06-1.82,2.06l-2.97,1.49h-3.88l-3.06-1.4-2.48-1.82-.74-5.12,1.4-3.88,3.06-2.48,4.71-1.9s3.3.91,3.55,1.08c.24.16,2.31,2.47,2.31,2.47,0,0,.82,1.98,1.07,2.4.25.41,0,3.38,0,3.63Z"/>
  <path class="cls-1" d="M438.62,287.46c0,.5-1.74,2.23-1.74,2.23l-1.98,1.08-3.71-.5-1.16-2.81-.74-2.14.99-2.23,2.39-1.82s3.39.25,3.72.41c.33.17,1.07,1.65,1.15,1.86.09.21,1.08,3.43,1.08,3.92Z"/>
  <path class="cls-1" d="M412.94,301.33c-.09.33-1.32,2.56-1.32,2.56l-2.4,1.24h-2.31s-1.73-.74-2.06-1.24c-.33-.49-1.33-1.32-1.49-1.9-.17-.57,0-2.22,0-2.22l.16-2.65,3.72-2.03s2.97.71,2.99.79c.01.09,1.47,1.16,1.47,1.16,0,0,.82,1.4.99,1.82.16.41.33,2.14.25,2.47Z"/>
  <line class="cls-1" x1="442.8" y1="363.65" x2="442.79" y2="363.65"/>
  <path class="cls-1" d="M555.95,254.93l-.83,11.23s-1.32,10.4-1.49,10.9c-.16.49-.66,2.31-.66,2.31l-6.88-2.26h-15.41l-3.08,2.26-4.68,4.17v9.04l-9.25,3.63-12.55,3.9-12.88,7-8.92,5.95-3.14-1.82-5.11-1.65-6.11,1.65-3.64-2.14s-2.97-1.66-3.8-2.15c-.82-.5-3.79-3.06-3.79-3.06l-3.97-5.2v-3.6s-1.65-2.84-2.14-3.33-1.49-3.47-1.49-3.47v-2.48l-2.31-4.13-4.3-7.1-2.47-5.94,1.57-3.97,4.17-4.79-1.12-5.11-.16-6.61-.83-9.41-2.06-6.11-2.89-6.11-1.78-7.6,2.11-11.06,6.73-8.59,13.58-10.07,11.56-4.46,13.21-3.14,15.19-2.48h13.21l14.53.99,5.78,4.3,8.1,9.74,8.25,11.06,7.1,9.42,1.49,12.22v18.16l1.16,9.91Z"/>
  <polyline class="cls-1" points="455.38 413.07 459.34 407.68 463.96 395.79 466.44 384.56 470.24 367.06 478.5 357.81 484.11 350.88"/>
  <path class="cls-1" d="M566.92,292.58v37.82l-4.31-3.14-10.13-6.11-12.99-4.18-9.03-1.1-14.75,1.76h-11.01l-9.75,3.96-7.65,5.67s-7.04,7.1-7.92,8.64c-.88,1.54-10.57,12.55-11.01,13.43-.44.88-7.27,9.03-7.93,10.35-.66,1.32-6.82,11.67-6.82,11.67l-5.61,14.38c-.11-.5-.19-.9-.23-1.17-.33-2.31-3.3-10.23-3.3-10.23l-1.68-10.68h1.24l1.87-1.32.55-1.44-1.32-2.2s.77.11,1.76,0c.99-.11,1.98,0,1.98,0l2.75-1.76,2.76-2.42-.44-2.53-3.75-3.53,3.09,1.21h2.58l2.29-.77,1.62-2.53.66-3.85v-10.46l-1.1-2.81-3.47-1.98,2.98-.82,3.96-1.82,3.63-4.46v-5.45l-1.48-3.47,6.11-1.65,5.11,1.65,3.14,1.82,8.92-5.95,12.88-7,12.55-3.9,9.25-3.63v-9.04l4.68-4.17,3.08-2.26h15.41l6.88,2.26,2.98,1.9,2.03,3.72v4.01l3.53,1.77,5.41,1.81Z"/>
  <path class="cls-1" d="M478.28,667.06s-.66,10.57-.66,11.23,1.32,17.83,1.54,18.71,2.42,16.08,2.64,16.74,1.76,15.19,1.76,15.19l1.54,7.49,3.3,19.27"/>
  <path class="cls-1" d="M566.92,605.63v150.06h-116.61l-2.42-12.89-1.76-11.23-1.98-11.45-2.2-9.02-1.32-10.79v-11.23l-1.55-14.31-1.32-11.67-5.37-40.33,2.29.69,10.79-1.1s9.48-1.68,10.35-1.5c.88.18,15.41-.18,16.29,0,.88.18,11.67,1.28,11.67,1.28l18.94-1.28,21.13-1.58,17.4-2.86s11.45-5.27,13.21-4.84,12.46-5.95,12.46-5.95Z"/>
  <polyline class="cls-1" points="514.5 479.35 527.38 463.39 536.63 451.5 544.56 441.6 549.62 432.13 554.24 416.05 557.55 404.16"/>
  <path class="cls-1" d="M460.44,332.05v10.46l-.66,3.85-1.62,2.53-2.29.77h-2.58l-3.09-1.21,3.75,3.53.44,2.53-2.76,2.42-2.75,1.76s-.99-.11-1.98,0c-.99.11-1.76,0-1.76,0l1.32,2.2-.55,1.44-1.87,1.32h-1.24l-.63-3.97-1.32-10.13-1.33-11.89v-8.42s2.32,1.82,2.65,2.31c.33.5,2.64,1.66,2.64,1.66l.82-4.46,2.48-3.47s2.81-.5,3.3-.5,4.46,2.48,4.46,2.48l3.47,1.98,1.1,2.81Z"/>
  <path class="cls-1" d="M566.92,330.4v275.23s-10.7,6.38-12.46,5.95-13.21,4.84-13.21,4.84l-17.4,2.86-21.13,1.58-18.94,1.28s-10.79-1.1-11.67-1.28c-.88-.18-15.41.18-16.29,0-.87-.18-10.35,1.5-10.35,1.5l-10.79,1.1-2.29-.69-3.54-1.07-1.44-8.37,1.44-11.23,1.87-7.7,1.54-10.79-2.68-27.96-4.15-10.57,2.08-11.45,2.07-6.31-2.07-10.21-2.08-10.78,1.76-8.81,2.39-14.37,1.61,5.12,8.33,15.63,7.93,10.46,9.58,6.5,17.83-1.54,7.93-2.98,6.61-5.94,10.56-10.9,6.94-8.26,4.95-7.27,2.65-4.62-8.7-4.07-10.57-6.61-9.25-5.94-7.7-5.07-13.32-8.58-5.84-3.14h-5.74l-3.07,4.02-4.4-4.02-3.12-5.67v-5.28l3.34-6.17v-3.96l3.08-4.85,4.63-4.84,1.54-2.1v-5.39l-3.97-8.91s-2.57-9.27-3.4-13.04l5.61-14.38s6.16-10.35,6.82-11.67c.66-1.32,7.49-9.47,7.93-10.35.44-.88,10.13-11.89,11.01-13.43.88-1.54,7.92-8.64,7.92-8.64l7.65-5.67,9.75-3.96h11.01l14.75-1.76,9.03,1.1,12.99,4.18,10.13,6.11,4.31,3.14Z"/>
  <path class="cls-1" d="M514.5,479.35l-2.65,4.62-4.95,7.27-6.94,8.26-10.56,10.9-6.61,5.94-7.93,2.98-17.83,1.54-9.58-6.5-7.93-10.46-8.33-15.63-1.61-5.12-2.61-8.31s-1.98-14.31-2.31-15.3c-.33-.99-6.33-15.86-6.33-15.86v-17.17l-2.26-13.54-3.11-15.53v-11.23l-4.84-1.65-4.83-5.34-6.14-8.2,1.75-1.98.99-8.42,1.49-1.82,1.15-14.2,1.65-1.98,1.82-3.96.17-4.3-1.16-2.31-2.97-3.3.8-3.43,2.17,2.27,3.96,1.16,7.77.33,5.61-1.32.5-1.66.66-3.3.16-6.77-.66-1.98s-.66-5.95-.66-6.44.5-3.72.5-3.72l1.65-3.05,5.45-1.49s1.65.33,2.47.83c.83.49,1.65,2.97,1.65,3.71v4.51c0,1.12.5,2.02.5,2.02l2.97,2.31,1.16,3.8s.16,5.78.33,6.27c.16.5.49,6.44.49,6.44v8.42l1.33,11.89,1.32,10.13.63,3.97,1.68,10.68s2.97,7.92,3.3,10.23c.04.27.12.67.23,1.17.83,3.77,3.4,13.04,3.4,13.04l3.97,8.91v5.39l-1.54,2.1-4.63,4.84-3.08,4.85v3.96l-3.34,6.17v5.28l3.12,5.67,4.4,4.02,3.07-4.02h5.74l5.84,3.14,13.32,8.58,7.7,5.07,9.25,5.94,10.57,6.61,8.7,4.07Z"/>
  <polygon class="cls-1" points="336.97 443.36 336.31 447.15 336.31 451.28 334.33 453.92 334.33 470.27 333.01 481.33 333.01 490.42 329.71 501.15 328.39 513.87 328.39 524.77 324.59 544.91 322.28 553.17 318.31 563.08 316.17 568.86 311.82 575.9 307.63 568.64 301.36 558.28 301.14 553.99 300.64 535 301.47 514.2 302.63 505.28 305.6 498.67 312.2 488.27 316 486.45 320.13 482.49 321.95 478.36 324.09 472.58 328.72 465.81 331.52 460.36 332.02 454.25 330.86 450.95 334.99 446.33 336.97 443.36"/>
  <path class="cls-1" d="M386.54,384.92l.8,4.27v5.12l-.8,3.46-3,3.14-1.81,1.49-1.49.82.66,3.36-.66,4.57-1.32.99,1.15,1.65v3.64l-2.14,3.13-3.64,2.98-5.94,2.47h-7.6l-5.12,6.11s-2.8,1.98-4.12,3.14c-1.33,1.16-6.28,6.5-6.28,6.5l-3.8,1.59h-4.45"/>
  <polygon class="cls-1" points="270.09 311.24 267.12 317.85 260.85 329.24 256.22 337.39 253.08 345.45 253.08 347.57 236.07 347.57 261.51 311.24 270.09 311.24"/>
  <path class="cls-1" d="M203.09,279.38l-8.84,5.61-1.98,6.85s-.22,7.49-.88,8.27,0,6.29,0,6.29l5.7,2,3.76,2.84.44,7.27-.44,5.15-2.42,4.54-5.28,1.21-5.28-2.15-6.39-8.09-3.08-7.93v-18.66l7.93-7.6,9.03-5.61,5.06-1.82,2.81.33.22.83-.35.66Z"/>
  <path class="cls-1" d="M277.69,235.94l-7.6,8.09-13.38,5.94-9.41,10.24-3.14,8.59-11.06,1.98-3.96,6.77-5.61,9.25-6.28,7.1-1.82,3.8-6.28-.99s-6.61-3.96-6.94-4.13-4.13-6.56-4.13-6.56l-.66-2.48"/>
  <path class="cls-1" d="M178.39,300.12l-7.54,3.37-7.27.41-5.12-1.89-5.12,7.75-.83,5.94,1.49,7.95,3.14,2.94,6.28,1.98h8.09l4.29-.83-2.97,3.47-5.94.99-8.59.66-5.78-.83,2.97,3.3-3.8,1.49-.99,2.64-3.63,5.61-3.8,5.78s-4.62,3.3-5.28,3.63-6.11.99-6.11.99l6.28-4.62.33-4.29-7.43-4.95-5.45-2.97-6.44-5.28,1.65,8.26-.5,5.94-3.47,6.61-5.94,2.64,1.16-3.8s-.99-4.79-1.16-5.45-3.8-4.29-3.8-4.29l-1.16,4.29s-2.31,6.77-2.64,7.27-3.47,1.98-3.47,1.98c0,0,.33-4.62,0-5.12s.99-3.96,0-4.79-2.48-2.64-2.48-2.64c0,0-4.46,4.46-4.46,4.95s-5.45,3.85-5.45,3.85"/>
</svg>