<?xml version="1.0" encoding="UTF-8"?>
<svg id="Vecteurs" xmlns="http://www.w3.org/2000/svg" viewBox="0 0 1440 960">
  <defs>
    <style>
      .cls-1 {
        fill: none;
        stroke: #edd6a7;
        stroke-width: 3px;
        stroke-miterlimit: 10;
      }
    </style>
  </defs>
  <polyline class="cls-1" points="0 687.85 60.11 707.89 83.89 758.75 83.89 779.89 216 834.06 212.04 808.29 190.24 749.5 188.26 690.72 209.39 639.85 206.75 612.11 216 599.56 231.19 599.56 173.72 585.03 206.09 577.76 280.07 591.63 301.21 588.99 309.14 595.6 309.14 618.06 295.93 664.29 293.94 728.37 315.74 785.83 315.74 806.97 216 834.06"/>
  <polyline class="cls-1" points="0 560.15 73.54 547.38 301.21 588.99"/>
  <polygon class="cls-1" points="321.47 615.63 352.73 619.6 352.73 561.58 349.43 561.58 347.45 568.18 324.66 565.54 321.47 557.94 317.72 557.94 321.47 615.63"/>
  <polygon class="cls-1" points="41.28 607.82 42.94 671.89 10.9 664.95 8.26 599.56 11.5 600.77 12.66 605.5 37.16 612.72 38.75 607.1 41.28 607.82"/>
  <polyline class="cls-1" points="288.09 586.59 286.46 534.39 293.72 523.6 363.3 519.85 593.17 540.77 594.5 568.18 577.65 607.16 575.34 657.69 597.47 711.52 595.16 727.71 527.45 744.22 521.17 717.47 504 679.82 503.34 623.01 520.18 587.01 522.5 557.94 529.1 549.36 536.37 546.72 476.59 541.76 492.77 537.14 580.29 545.72 593.17 540.77"/>
  <polyline class="cls-1" points="527.45 744.22 396.33 710.53 371.23 644.15 305.14 632.04"/>
  <polyline class="cls-1" points="531.98 535.2 531.98 505.43 539.67 497.83 591.19 495.52 811.16 509.72 815.45 535.2 799.93 562.57 797.61 614.42 815.45 656.04 815.45 669.25 767.89 681.47 764.59 665.94 744.44 626.31 746.09 578.75 761.61 543.74 760.95 519.85 763.27 516.66 769.54 515.34 712.4 510.39 730.9 508.07 803.23 513.69 811.16 509.72"/>
  <polyline class="cls-1" points="767.89 681.47 636.11 660.66 615.96 602.86 581.71 597.76"/>
  <polyline class="cls-1" points="562.74 538 563.61 527.89 566.42 527.89 567.41 532.95 590.86 534.99 593.5 530.04 596.81 530.04 598.95 577.27 595.32 580.24 589.29 580.24"/>
  <polyline class="cls-1" points="726.61 503.34 726.61 490.57 730.07 484.46 754.02 478.68 967.38 489.91 972.66 496.29 952.73 548.04 952.29 583.49 971.45 619.38 969.47 633.03 930.94 643.16 927.85 624.44 911.34 594.5 910.46 553.54 929.61 515.01 928.51 502.02 930.06 497.83 934.02 495.41 871.27 490.79 891.52 489.47 961.32 493.87 967.38 489.91"/>
  <polyline class="cls-1" points="798.34 598.24 801.03 598.24 813.14 628.18 930.94 643.16"/>
  <polyline class="cls-1" points="859.03 484.21 859.03 468.11 897.69 466.13 1097.67 477.52 1103.28 491.72 1087.76 524.92 1087.6 559.43 1104.44 590.97 1102.79 601.71 1072.57 608.15 1072.4 598.4 1055.06 567.19 1054.9 529.71 1070.75 498.33 1070.26 485.12 1072.4 481.49 1075.38 479.83 1020.55 477.69 1025.17 475.71 1091.77 478.84 1097.67 477.52"/>
  <line class="cls-1" x1="958.51" y1="595.13" x2="1072.57" y2="608.15"/>
  <line class="cls-1" y1="352.51" x2="1440" y2="344.26"/>
  <polygon class="cls-1" points="304.07 415.49 309.14 476.48 367.93 473.17 364.62 411.96 304.07 415.49"/>
  <polygon class="cls-1" points="305.61 411.96 295.71 413.72 302.75 495.52 315.91 494.24 371.67 488.81 367.93 409.1 305.61 411.96"/>
  <polyline class="cls-1" points="317.72 522.31 317.72 494.06 350.54 490.87 350.54 519.85"/>
  <polyline class="cls-1" points="557.85 497.02 557.85 473.06 583.27 471.58 583.27 495.88"/>
  <polygon class="cls-1" points="547.6 402.88 546.11 473.06 557.85 473.06 583.27 471.58 602.42 470.09 603.08 402.88 553.54 402.88 547.6 402.88"/>
  <polyline class="cls-1" points="554.28 402.88 553.21 458.37 600.85 455.81 601.68 402.88"/>
  <polyline class="cls-1" points="732.71 483.82 732 462.28 748.18 459.08 748.82 479.93"/>
  <polyline class="cls-1" points="732 462.28 721.32 464.37 720 398.09 764.04 395.12 764.04 455.56 748.18 459.08"/>
  <polyline class="cls-1" points="764.04 444 724.62 447.19 724.05 397.82"/>
  <polyline class="cls-1" points="16.76 557.24 15.63 531.96 60.77 527.12 61.88 549.4"/>
  <path class="cls-1" d="M0,427.6c5.06,0,81.91-2.64,81.91-2.64l3.96,72L0,504"/>
  <polyline class="cls-1" points="0 419.89 85.87 417.91 92.15 524.26 60.77 527.12 15.63 531.96 0 533.62"/>
  <polygon class="cls-1" points="0 268.29 13.54 269.94 30.72 251.45 294.28 264.99 309.14 281.83 42.94 273.58 25.76 291.08 0 291.08 0 268.29"/>
  <polygon class="cls-1" points="0 230.64 11.23 216.11 0 214.79 0 230.64"/>
  <polygon class="cls-1" points="0 178.79 20.48 181.1 3.63 159.63 0 159.63 0 178.79"/>
  <polygon class="cls-1" points="0 139.49 5.61 145.76 231.85 167.56 219.3 181.1 29.72 162.61 46.57 183.41 337.87 207.19 298.57 156.33 97.76 135.19 81.91 117.03 235.16 134.86 218.97 117.03 0 87.3 0 139.49"/>
  <polygon class="cls-1" points="0 70.46 0 49.98 132.44 70.46 148.29 92.26 0 70.46"/>
  <polygon class="cls-1" points="154.57 75.74 168.94 60.88 224.92 68.31 254.97 105.14 168.94 95.23 154.57 75.74"/>
  <polygon class="cls-1" points="0 15.63 312.44 66.83 298.9 47.34 74.15 9.03 68.04 0 0 0 0 15.63"/>
  <polygon class="cls-1" points="194.86 0 209.39 18.94 238.46 22.9 220.62 0 194.86 0"/>
  <polygon class="cls-1" points="246.72 0 267.52 28.84 378.17 48 400.29 21.58 349.1 11.45 340.84 0 246.72 0"/>
  <polygon class="cls-1" points="42.61 217.1 25.1 235.6 152.26 242.53 167.45 226.68 42.61 217.1"/>
  <polygon class="cls-1" points="179.01 244.18 192.55 226.35 370.57 238.24 348.44 267.96 314.42 267.96 301.87 251.45 179.01 244.18"/>
  <polygon class="cls-1" points="374.53 253.1 385.1 238.9 526.46 247.16 533.72 235.93 628.18 242.53 618.94 229.82 575.34 226.35 584.26 211.49 623.23 215.45 646.68 249.14 642.06 256.07 539.67 250.46 530.42 263.01 374.53 253.1"/>
  <polygon class="cls-1" points="478.24 273.58 489.8 288.77 644.7 293.39 636.44 278.53 478.24 273.58"/>
  <polygon class="cls-1" points="300.22 111.74 314.42 129.91 488.48 150.06 478.24 132.55 300.22 111.74"/>
  <polygon class="cls-1" points="304.84 96.88 329.61 69.47 361.32 75.41 372.88 90.61 488.48 107.45 521.17 152.04 561.47 156.99 571.71 144.44 591.52 147.25 575.01 172.84 515.56 166.24 483.52 121.16 304.84 96.88"/>
  <polygon class="cls-1" points="587.89 174.17 601.1 176.15 610.02 163.93 722.97 177.8 714.06 163.93 604.4 150.06 587.89 174.17"/>
  <polygon class="cls-1" points="442.24 87.63 500.7 96.22 521.83 126.61 655.43 144.77 646.68 130.9 527.45 111.74 505.65 83.01 454.13 72.77 442.24 87.63"/>
  <polygon class="cls-1" points="522.45 85.02 533.39 102.17 638.09 118.35 628.18 101.17 522.45 85.02"/>
  <polygon class="cls-1" points="467.01 33.41 488.48 66.83 568.07 79.71 578.31 68.15 650.97 83.01 667.16 60.88 732.88 72.77 724.62 58.21 660.22 44.7 644.7 66.83 467.01 33.41"/>
  <polygon class="cls-1" points="339.81 161.65 376.84 211.49 556.18 223.71 573.69 198.94 666.83 207.19 658.57 193.82 566.42 184.4 557.83 196.62 505.98 191.67 497.06 204.55 478.24 203.23 455.45 172.84 339.81 161.65"/>
  <polygon class="cls-1" points="674.09 183.74 683.34 197.94 759.3 205.54 767.23 192.68 674.09 183.74"/>
  <polygon class="cls-1" points="674.09 219.74 681.36 233.28 658.57 231.3 666.83 243.85 788.7 252.44 776.48 229.32 788.7 229.98 804.22 254.42 796.95 264.99 663.52 257.39 636.44 217.76 674.09 219.74"/>
  <polygon class="cls-1" points="643.05 267.96 659.23 293.39 718.02 296.04 726.28 283.49 804.22 288.77 824.7 255.41 812.81 255.41 799.18 275.15 643.05 267.96"/>
  <polygon class="cls-1" points="676.73 208.93 692.92 233.94 708.85 234.94 716.45 225.19 765.91 229.07 780.36 208.27 798.94 209.67 791.17 196.71 775.82 195.14 761.28 215.86 676.73 208.93"/>
  <polygon class="cls-1" points="737.83 296.04 744.66 308.48 808.51 310.02 829.21 277.65 885.36 279.85 894.83 263.01 863.56 260.04 857.39 269.28 824.7 267.08 804.22 298.57 737.83 296.04"/>
  <polygon class="cls-1" points="792.41 219.41 811.49 221.39 797.78 197.78 811.49 199.1 819.33 211.32 876.8 217.51 859.71 246.66 837.74 244.68 830.39 233.94 800.09 231.88 792.41 219.41"/>
  <polygon class="cls-1" points="633.8 90.36 644.86 91.76 663.44 120.74 708.11 128.09 716.28 140.72 724.46 141.8 740.56 167.64 859.54 183.5 866.06 194.64 738.5 179.61 722.97 153.94 714.72 152.61 706.13 139.82 659.48 132.72 633.8 90.36"/>
  <polygon class="cls-1" points="658.57 94.24 665.67 83.5 714.8 93 747.58 145.68 779.2 150.55 772.51 160.71 744.85 156.66 713.06 104.23 658.57 94.24"/>
  <polygon class="cls-1" points="730.98 107.94 744.36 109.68 759.88 135.03 745.43 133.38 730.98 107.94"/>
  <polygon class="cls-1" points="723.39 94.07 729.91 84.83 751.71 88.62 768.63 113.97 782.42 116.53 791.09 128.92 821.81 134.61 815.2 144.77 772.6 137.42 748.07 99.03 723.39 94.07"/>
  <polygon class="cls-1" points="772.6 81.52 784.65 83.92 800.09 108.44 831.88 114.8 826.51 124.21 795.3 118.6 772.6 81.52"/>
  <polygon class="cls-1" points="779.2 161.78 786.06 151.46 802.07 153.69 795.24 163.84 779.2 161.78"/>
  <polygon class="cls-1" points="810.33 155.26 803.48 165.33 907.43 179.53 902.39 168.96 810.33 155.26"/>
  <polygon class="cls-1" points="873.83 186.14 885.96 208.43 925.51 212.97 914.12 190.84 873.83 186.14"/>
  <polygon class="cls-1" points="914.7 171.11 920.72 181.84 939.72 184.24 945.91 174.91 914.7 171.11"/>
  <polygon class="cls-1" points="949.05 185.48 954.41 176.06 1078.35 194.48 1073.39 202.98 1025.59 196.54 1020.22 205.13 961.51 197.7 966.96 187.54 949.05 185.48"/>
  <polygon class="cls-1" points="930.96 203.06 936.5 214.46 997.84 221.31 991.57 209.59 930.96 203.06"/>
  <polygon class="cls-1" points="889.18 218.42 919.82 221.31 902.56 250.21 872.17 247.4 889.18 218.42"/>
  <polygon class="cls-1" points="893.89 281.17 905.37 282 932.12 233.86 984.72 238.73 990.41 229.07 926.92 222.22 893.89 281.17"/>
  <polygon class="cls-1" points="898.1 302.97 904.7 292.26 980.42 295.38 974.15 306.28 898.1 302.97"/>
  <polygon class="cls-1" points="886.54 322.79 892.82 313.05 949.29 314.28 943.1 323.86 886.54 322.79"/>
  <polygon class="cls-1" points="954.5 323.86 960.28 314.78 969.36 314.78 964.07 324.28 954.5 323.86"/>
  <polygon class="cls-1" points="988.6 152.78 993.39 143.78 1008.41 146.59 1013.7 156.58 988.6 152.78"/>
  <polygon class="cls-1" points="1016.34 148.07 1021.38 158.56 1028.06 159.63 1033.35 150.96 1016.34 148.07"/>
  <polygon class="cls-1" points="1001.89 125.94 1008 117.44 1046.97 125.94 1041.77 134.45 1001.89 125.94"/>
  <polygon class="cls-1" points="1044.83 153.28 1054.49 155.01 1058.53 146.92 1142.42 162.77 1147.13 171.94 1155.63 173.34 1146.72 154.18 1053.33 135.77 1044.83 153.28"/>
  <polygon class="cls-1" points="1069.76 175.35 1074.22 185.72 1082.64 187.21 1087.38 178.48 1069.76 175.35"/>
  <polygon class="cls-1" points="1094.19 179.33 1112.45 182.26 1116.58 192.41 1089.41 188.28 1094.19 179.33"/>
  <polygon class="cls-1" points="1118.06 182.92 1122.19 193.32 1131.19 194.81 1134.81 185.87 1118.06 182.92"/>
  <polygon class="cls-1" points="1140.77 186.8 1137.06 195.55 1176.36 201.33 1179.83 194.06 1197.5 196.79 1193.2 186.39 1161.25 181.28 1157.2 188.86 1140.77 186.8"/>
  <polygon class="cls-1" points="936.33 253.18 947.72 274.57 966.47 275.48 972.66 286.46 1038.06 290.09 1047.06 272.34 981.5 267.72 974.64 255.74 936.33 253.18"/>
  <polygon class="cls-1" points="986.2 247.98 996.36 229.73 1053.33 235.84 1066.46 263.83 1028.72 261.28 1023.44 251.04 986.2 247.98"/>
  <polygon class="cls-1" points="1001.81 211.49 1006.84 222.22 1050.85 227.34 1045.82 216.11 1001.81 211.49"/>
  <polygon class="cls-1" points="1049.37 207.44 1053.83 217.76 1066.46 219.41 1071.08 210.66 1049.37 207.44"/>
  <polygon class="cls-1" points="1081.22 204.46 1086.11 195.55 1119.63 199.76 1123.76 209.83 1081.22 204.46"/>
  <polygon class="cls-1" points="1078.02 211.49 1073.31 220.9 1130.86 227.34 1126.03 217.41 1078.02 211.49"/>
  <polygon class="cls-1" points="1133.68 218.88 1137.88 228.5 1148.37 229.73 1152.25 221.31 1133.68 218.88"/>
  <polygon class="cls-1" points="1057.95 227.34 1062.66 238.16 1138.46 246.17 1142.97 236.42 1057.95 227.34"/>
  <polygon class="cls-1" points="1075.46 246.78 1079.42 256.9 1125.08 261.11 1129.71 252.11 1075.46 246.78"/>
  <polygon class="cls-1" points="1051.68 272.5 1043.59 290.09 1158.11 296.28 1150.76 279.19 1051.68 272.5"/>
  <polygon class="cls-1" points="1119.3 303.22 1126.65 320.48 1176.36 321.96 1180.65 313.71 1193.7 314.04 1200.8 299.5 1242.99 301.49 1238.78 292.57 1197.33 290.09 1194.03 297.94 1174.95 297.03 1170.33 305.45 1119.3 303.22"/>
  <polygon class="cls-1" points="1171.57 281.34 1176.03 272.5 1215.66 275.64 1219.62 284.39 1171.57 281.34"/>
  <polygon class="cls-1" points="1136.89 270.11 1148.94 246.17 1192.46 250.29 1198.82 267.3 1172.48 265.07 1168.6 272.83 1136.89 270.11"/>
  <polygon class="cls-1" points="1150.64 238.43 1154.81 229.73 1188.59 233.25 1184.23 241.97 1150.64 238.43"/>
  <polygon class="cls-1" points="1194.03 233.94 1190.56 243.28 1256.94 249.88 1264.13 235.02 1242.41 232.62 1238.37 239.15 1209.96 235.85 1203.36 221.31 1221.44 223.71 1218.3 213.88 1125.66 200.42 1130.12 210.99 1196.42 220.4 1202.2 235.1 1194.03 233.94"/>
  <polygon class="cls-1" points="1223.05 214.51 1227.22 224.3 1238.45 225.94 1242.91 217.6 1223.05 214.51"/>
  <polygon class="cls-1" points="1201.38 314.26 1205.06 305.61 1238.31 307.27 1241.56 314.75 1265.89 315.8 1261.65 324.06 1237.54 323.56 1233.63 315.47 1201.38 314.26"/>
  <polygon class="cls-1" points="1196.83 251.2 1200.39 259.5 1231.27 261.94 1247.2 300.74 1254.3 301.16 1236.39 254.59 1196.83 251.2"/>
  <polygon class="cls-1" points="1239.85 255.25 1249.1 279.36 1265.37 280.35 1256.53 256.82 1239.85 255.25"/>
  <polygon class="cls-1" points="1251.57 285.6 1257.77 301.9 1303.51 304.05 1308.88 290.92 1333.49 292.16 1342.32 271.68 1337.12 271.68 1332.25 282.91 1306.65 281.83 1303.18 289.18 1288.4 289.1 1285.51 294.96 1272.14 294.39 1267.93 286.62 1251.57 285.6"/>
  <polygon class="cls-1" points="1266.28 243.61 1270.16 235.85 1300.62 239.31 1304.75 232.79 1318.13 234.69 1326.39 257.81 1321.1 268.62 1327.29 269.86 1330.6 263.75 1328.04 257.23 1331.75 249.88 1341.58 251.2 1344.39 258.96 1335.3 257.89 1334.06 259.5 1336.46 265.9 1331.01 278.04 1302.94 276.8 1299.63 282.25 1269.99 280.35 1261.16 257.52 1316.31 262.51 1320.77 256.16 1315.82 242.7 1306.9 241.05 1300.13 254.67 1291.46 253.93 1287.66 245.92 1266.28 243.61"/>
  <polygon class="cls-1" points="1336.79 292.32 1341.87 292.61 1349.96 271.97 1345.09 271.72 1336.79 292.32"/>
  <polygon class="cls-1" points="1348.14 285.63 1352.93 285.88 1357.76 272.83 1352.95 272.5 1348.14 285.63"/>
  <polygon class="cls-1" points="1358.75 280.14 1362.59 280.14 1365.15 273.21 1360.9 273.21 1358.75 280.14"/>
  <polygon class="cls-1" points="1274.09 208.35 1270.79 199.32 1260.94 197.78 1254.28 181.32 1214.15 174.17 1200.28 204.77 1214.37 206.86 1217.89 198.72 1210.73 197.67 1216.79 183.91 1239.47 187.71 1242.91 196.07 1253.01 197.72 1256.31 205.71 1274.09 208.35"/>
  <polygon class="cls-1" points="1218.44 207.8 1222.73 199.32 1247.5 203.28 1254.44 218.37 1287.36 223.49 1292.2 211.4 1288.35 210.77 1285.49 202.18 1300.68 204.99 1289.23 232.18 1250.37 226.95 1244.15 211.49 1218.44 207.8"/>
  <polygon class="cls-1" points="1337.39 203.89 1340.04 211.43 1345.98 212.09 1349.45 205.82 1337.39 203.89"/>
  <path class="cls-1" d="M1298.92,219.08c-.11.17-3.25,7.21-3.25,7.21l23.89,3.14,5.23,13.43,11.67,1.76,4.73-5.89,11.83,1.49-1.82-8.37-19.21-2.53-4.13-7.05-28.95-3.19Z"/>
  <path class="cls-1" d="M1409.89,227.01l-16.73-2.04-5.45-13.65-24.33-3.41-5.45,11.72-19.38-3.14-5.28-13.87-19.16-2.86-3.58,6.44-5.67-.77-3.08,6.72,11.28,1.82,3.3-6.22,13.16,2.26,6.17,14.59,77.23,10.07-3.03-7.65ZM1363.98,220.73c0-.17,1.93-5.48,1.93-5.48l19.3,2.88,1.72,5.62-22.95-3.03Z"/>
  <polygon class="cls-1" points="1307.15 304.05 1310.08 296.45 1354.17 298.68 1350.91 306.23 1321.8 305.08 1324.2 310.86 1341.5 311.64 1344.06 319.4 1320.61 318.66 1315.07 304.62 1307.15 304.05"/>
  <polygon class="cls-1" points="1345.29 312.06 1347.73 319.4 1369.44 320.02 1378.2 301.78 1383.36 302.06 1386.37 307.93 1412.05 308.92 1407.18 295.5 1391.45 295.05 1387.2 287.16 1378.4 287.16 1367.22 312.52 1345.29 312.06"/>
  <polygon class="cls-1" points="1357.76 299.12 1354.68 306.28 1366.46 306.77 1376.86 282.25 1413.91 284.2 1419.63 297.74 1433.39 298.29 1425.74 272.5 1419.25 272.2 1415.83 265.27 1393.1 263.17 1391.39 257.39 1416.28 260.04 1419.3 266.53 1428.77 267.36 1432.24 261.52 1422.5 260.64 1419.47 253.43 1344.39 244.84 1346.15 252.66 1350.77 253.27 1356.17 267.08 1368.66 268.07 1366.35 260.42 1358.2 259.6 1355.94 253.87 1385.23 256.68 1390.46 270 1411.21 271.72 1412.92 276.67 1374.72 274.02 1363.87 299.56 1357.76 299.12"/>
  <polygon class="cls-1" points="1409.16 289.64 1414.24 290.05 1420.06 308.75 1414.8 308.75 1409.16 289.64"/>
  <polygon class="cls-1" points="1440 285.88 1433.39 285.47 1436.7 297.61 1440 297.61 1440 285.88"/>
  <polygon class="cls-1" points="1440 304.05 1437.85 304.05 1440 311.72 1440 304.05"/>
  <polygon class="cls-1" points="1429.93 272.09 1432.29 267.19 1436.48 267.74 1438.15 272.91 1429.93 272.09"/>
  <polygon class="cls-1" points="1417.87 235.38 1411.93 221.56 1440 225.74 1440 238.62 1417.87 235.38"/>
  <polygon class="cls-1" points="1420.73 198.66 1425.52 212.09 1440 214.46 1440 207.99 1437.69 207.99 1433.28 201.08 1420.73 198.66"/>
  <polygon class="cls-1" points="1416.17 197.45 1420.73 211.27 1384.18 204.77 1380.94 197.45 1359.96 194.64 1355.06 206.86 1350.77 206.09 1358.09 187.54 1382.75 191.5 1385.75 197.83 1406.31 201.8 1409.67 196.46 1416.17 197.45"/>
  <polygon class="cls-1" points="1379 236.44 1380.91 243.41 1419.47 247.82 1423.32 254.81 1440 256.62 1440 250.13 1432.46 249.14 1429.16 242.86 1379 236.44"/>
  <polygon class="cls-1" points="1368.11 235.16 1370.15 242.59 1378.02 243.58 1376.07 236.44 1368.11 235.16"/>
  <polygon class="cls-1" points="1360.79 233.86 1362.83 241.29 1367.91 242.01 1365.96 234.87 1360.79 233.86"/>
  <polygon class="cls-1" points="1355.5 233.06 1357.54 240.5 1360.25 240.85 1358.29 233.72 1355.5 233.06"/>
  <polyline class="cls-1" points="1081.2 476.58 1093.21 456.22 1104.22 443.89 1110.06 436.84 1111.6 433.43 1116.88 431.12 1118.42 431.12 1120.95 427.27 1125.58 424.84 1132.29 424.84 1137.58 427.16 1141.1 430.13 1143.74 438.17 1147.27 440.48 1150.24 446.09 1155.76 457.69 1128.06 456.58 1120.29 465.8 1113.91 477.69 1103.89 505.87 1101.58 515.67 1105.65 530.97 1103.34 542.42 1104.22 558.61 1106.09 575.12 1103.47 589.15"/>
  <polygon class="cls-1" points="989.28 471.35 990.72 461.72 994.79 450.83 999.74 443.89 1005.36 434.97 1006.35 431.78 1010.42 423.63 1014.39 421.87 1017.91 422.53 1021.43 424.07 1024.51 426.61 1025.83 429.36 1027.27 432.55 1032.55 434.86 1037.39 437.61 1042.13 441.47 1044.88 446.61 1048.29 453.91 1020.66 452.26 1018.79 455.78 1017.58 462.61 1016.79 472.91 989.28 471.35"/>
  <polyline class="cls-1" points="974.41 470.5 976.18 456.44 983.45 447.39 996.43 448.52"/>
  <line class="cls-1" x1="1020.66" y1="452.26" x2="1093" y2="456.58"/>
  <polyline class="cls-1" points="1155.76 457.69 1182.22 459.28 1182.22 463.65 1179.17 466.38 1179.41 481.82 1163.56 506.42 1162.9 539.28 1179.17 567.52 1179 577.68 1105.79 572.47"/>
  <polyline class="cls-1" points="1154.2 454.42 1203.19 458.95 1206.5 469.1 1195.76 488.26"/>
  <polyline class="cls-1" points="1182.22 459.96 1198.68 461.94 1203.19 458.95"/>
  <polyline class="cls-1" points="1179.25 471.75 1189.54 474.94 1199.56 497.06 1217.61 501.58 1217.61 504.88 1227.74 513.91 1233.58 524.26 1236.77 533.28 1238.09 543.96 1237.21 557.17 1235.34 570.61 1231.27 582.72 1224.11 595.16 1215.08 603.74 1179.25 635.45 1147.6 657.91 1091.23 689.17 1068.33 700.18 1041.24 704.15 1026.33 702.39 1010.64 695.78 999.63 685.65 990.41 666.93 989.28 649.35"/>
  <polyline class="cls-1" points="1173.16 557.1 1182.22 565.87 1183.38 569.83 1183.38 572.64 1185.69 573.63 1189.98 571.38 1195.1 569.83 1199.89 566.7 1204.18 561.25 1204.18 557.61 1201.38 553.49 1193.94 547.71 1183.87 537.75 1180.35 533.01 1180.35 529.54 1186.18 524.92 1189.65 521.61 1193.17 515.78 1196.26 509.83 1199.45 507 1212.88 510.28 1214.86 509.61 1218.94 513.25 1223.23 518.86 1227.41 526.68 1230.06 533.72 1231.27 540.32 1231.27 546.06 1230.72 559.82 1229.72 566.64 1226.86 575.56 1221.8 587.01 1217.17 592.84 1199.78 608.15 1177.8 627.91 1148.37 650.09 1125.58 661.98 1096.51 678.83 1066.46 693.03 1047.06 695.34 1026.33 695.34 1011.96 686.75 1001.81 673.19 997.84 664.95 999.41 659.01"/>
  <polyline class="cls-1" points="1200.76 565.6 1205.28 567.19 1204.3 572.48 1184.59 577.68 1179 577.68"/>
  <polyline class="cls-1" points="1150.24 446.09 1279.27 458.95 1280.15 467.67 1271.78 493.21 1272.22 524.7 1283.45 541.65 1286.09 550.24 1284.77 554.42 1262.97 559.71 1259.45 554.86 1258.57 542.97 1250.64 528.66 1249.32 495.41 1260.99 478.02 1264.73 465.25 1267.6 463.27 1233.91 458.95 1238.09 457.69 1272 461.94 1279.27 458.95"/>
  <line class="cls-1" x1="1262.97" y1="559.71" x2="1237.29" y2="555.95"/>
  <line class="cls-1" x1="1230.91" y1="555.08" x2="1193.94" y2="547.71"/>
  <polyline class="cls-1" points="1118.42 431.12 1117.61 433.35 1123.14 434.01 1126.82 434.01 1132.51 434.75 1136.64 435.37 1138.13 435.58 1137.59 432.89 1136.72 430.21 1135.16 427.57 1132.29 424.84"/>
  <line class="cls-1" y1="741.58" x2="70.17" y2="729.41"/>
  <line class="cls-1" x1="295.33" y1="683.46" x2="379.92" y2="667.14"/>
  <line class="cls-1" x1="577.44" y1="625.76" x2="620.93" y2="617.1"/>
  <line class="cls-1" y1="803.67" x2="90.44" y2="782.57"/>
  <line class="cls-1" x1="296.65" y1="735.49" x2="396.33" y2="710.53"/>
  <line class="cls-1" x1="581.71" y1="673.19" x2="636.11" y2="660.66"/>
  <line class="cls-1" x1="800.62" y1="621.43" x2="809.67" y2="619.6"/>
  <line class="cls-1" x1="531.98" x2="1440" y2="194.64"/>
  <polyline class="cls-1" points="1337.94 445.16 1348.18 446.09 1347.36 456.72 1338.77 478.68 1337.94 505.6 1350 521.45 1351.65 535.16 1334.64 540.11"/>
  <polyline class="cls-1" points="1072.8 455.37 1072.4 448.87 1074.3 446.81 1098.83 442.84 1104.73 443.28"/>
  <polyline class="cls-1" points="1173.16 448.38 1177.43 440.42 1180.35 434.75 1173.96 434.75 1152.99 435.58 1150.84 438.06 1152 446.09"/>
  <polyline class="cls-1" points="1180.35 434.75 1185.03 429.47 1192.71 424.02 1200.55 422.2 1203.19 422.2 1214.75 418.24 1222.84 416.92 1225.82 413.94 1229.28 412.13 1233.63 412.13 1241.83 413.28 1245.96 416.26 1246.79 420.39 1245.63 423.44 1249.43 430.21 1253.23 431.61 1255.21 434.75 1256.18 439.98"/>
  <polyline class="cls-1" points="1223.7 453.41 1223.7 445.16 1225.82 438.06 1337.94 445.16 1334.97 446.09 1334.97 458.95 1320.11 478.68 1320.11 507 1331.8 531.38 1331.9 535.73 1334.64 540.11 1278.34 533.94"/>
  <polyline class="cls-1" points="1225.82 438.06 1228.79 431.45 1233.63 428.48 1242 428.48 1245.96 432.11 1248.08 439.47"/>
  <polyline class="cls-1" points="1222.84 416.92 1226.31 419.89 1231.27 419.89 1232.48 416.92 1232.48 412.13"/>
  <polyline class="cls-1" points="1235.17 412.35 1235.17 416.59 1235.89 419.34 1241.72 419.89 1245.63 423.44"/>
  <polyline class="cls-1" points="1247.07 425.99 1410.28 435.58 1410.28 456.22 1402.79 465.25 1401.25 496.29 1412.05 509.5 1413.36 516.55 1410.28 520.95 1399.49 524.04 1349.16 520.34"/>
  <polyline class="cls-1" points="1402.13 435.58 1402.13 441.56 1399.27 442.57 1399.27 448.38 1386.28 466.57 1384.95 497.83 1399.05 513.25 1399.49 524.04"/>
  <polyline class="cls-1" points="1285.6 428.26 1286.75 422.31 1291.16 418.79 1440 424.73 1440 509.94 1409.16 507"/>
  <polyline class="cls-1" points="1355.53 421.29 1355.2 416.32 1355.61 411.3 1344.39 411.3 1342.32 413.61 1341.57 420.8"/>
  <polyline class="cls-1" points="1373.29 422.07 1373.53 414.61 1375.43 411.3 1440 410.64 1440 424.73"/>
  <polyline class="cls-1" points="1355.61 411.3 1357.51 404.78 1360.57 400.49 1362.22 396.19 1364.78 393.22 1367.67 392.81 1370.31 393.47 1372.46 395.2 1375.84 395.94 1381.54 399.66 1384.27 403.38 1387.9 406.68 1389.96 408.66 1390.87 411.14"/>
  <polyline class="cls-1" points="974.41 596.94 974.41 610.46 977.28 628.62 991.82 653.72 999.41 659.01 1015.54 657.03 1060.51 659.01 1081.2 662.31 1085.61 666.61 1098.83 661.98 1108.07 620.7 1102.79 601.71"/>
  <line class="cls-1" x1="1066.46" y1="59.89" x2="1438.93" y2="148.07"/>
  <line class="cls-1" x1="1133.68" y1="0" x2="1438.93" y2="84.83"/>
  <line class="cls-1" x1="1357.35" y1="9.69" x2="1440" y2="36.11"/>
  <line class="cls-1" x1="1384.95" y1="181.28" x2="1384.95" y2="135.77"/>
  <line class="cls-1" x1="1343.42" y1="125.94" x2="1343.42" y2="171.11"/>
  <line class="cls-1" x1="1274.09" y1="157.65" x2="1274.09" y2="109.05"/>
  <line class="cls-1" x1="1182.22" y1="90.36" x2="1182.22" y2="139.38"/>
  <line class="cls-1" x1="1206.5" y1="24" x2="1205.28" y2="90.36"/>
  <line class="cls-1" x1="1295.67" y1="111.74" x2="1295.67" y2="48"/>
  <line class="cls-1" x1="1368.11" y1="125.94" x2="1368.11" y2="66.83"/>
  <line class="cls-1" x1="1429.6" y1="192.41" x2="1429.93" y2="145.94"/>
  <line class="cls-1" x1="1393.19" y1="72.12" x2="1393.19" y2="21.15"/>
  <polyline class="cls-1" points="877.87 467.14 877.87 450.94 894.72 450.94 894.72 466.13"/>
  <polygon class="cls-1" points="871.6 392.31 872.42 450.94 877.87 450.94 894.72 450.94 908.92 450.11 911.06 390 871.6 392.31"/>
  <polyline class="cls-1" points="909.45 435.08 877.87 436.57 877.05 391.99"/>
  <polyline class="cls-1" points="1017.91 422.53 1020.66 425.23 1021.82 428.81 1019.94 431.39 1016.92 434.06 1012.95 435.08 1007.45 435.08 1005.64 434.06 990.33 434.26 988.51 383.06 1020.66 383.06 1020.66 423.74"/>
  <line class="cls-1" x1="998.91" y1="434.14" x2="998.91" y2="445.05"/>
  <polyline class="cls-1" points="1010.42 423.63 994.13 424.84 993.47 383.06"/>
  <polygon class="cls-1" points="1082.15 382.4 1083.47 428.48 1108.57 427.49 1109.72 381.08 1082.15 382.4"/>
  <polyline class="cls-1" points="1088.57 382.1 1087.76 419.89 1108.79 418.75"/>
  <polyline class="cls-1" points="1086.63 444.81 1086.63 428.48 1099.82 427.83 1098.83 442.84"/>
  <polyline class="cls-1" points="1162.57 435.08 1162.57 421.87 1174.79 420.77 1174.79 434.75"/>
  <polygon class="cls-1" points="1174.79 420.77 1159.93 422.2 1158.28 376.62 1183.27 374.64 1184.81 418.79 1174.79 420.77"/>
  <polyline class="cls-1" points="1184.52 410.64 1164.11 411.3 1163.45 376.21"/>
  <polyline class="cls-1" points="1243.19 414.26 1253.39 413.28 1252.84 369.03 1230.28 370.79 1231.09 412.13"/>
  <polyline class="cls-1" points="1235.99 370.34 1235.99 404.78 1253.37 403.26"/>
  <polygon class="cls-1" points="1296.81 370.51 1315.82 369.03 1315.16 405.94 1296.66 406.76 1296.81 370.51"/>
  <polyline class="cls-1" points="1301.7 370.34 1300.46 400.16 1315.27 399.41"/>
  <polyline class="cls-1" points="1299.88 406.76 1299.47 419.12 1306.24 419.39 1307.07 406.3"/>
  <polygon class="cls-1" points="1355.2 365.39 1354.71 393.96 1363.87 394.28 1364.78 393.22 1367.67 392.81 1369.16 365.39 1355.2 365.39"/>
  <polyline class="cls-1" points="1355.2 365.39 1350.74 365.39 1350.74 399.33 1360.85 399.74 1362.06 401.72 1366.6 401.72 1368.99 399.41 1370.76 398.46 1372.05 397.35 1372.46 395.2"/>
  <line class="cls-1" x1="1355.61" y1="399.53" x2="1355.12" y2="411.3"/>
  <polygon class="cls-1" points="1399.05 364.93 1414.9 365.81 1413.08 396.03 1398.47 395.04 1399.05 364.93"/>
  <polyline class="cls-1" points="1403.34 365.17 1402.27 390.58 1413.36 391.49"/>
  <polyline class="cls-1" points="1440 405.42 1392.85 405.01 1390.87 406.35 1390.28 409.51"/>
  <polyline class="cls-1" points="1402.27 395.29 1401.85 405.09 1408.62 405.09 1409.12 395.76"/>
</svg>