<?xml version="1.0" encoding="UTF-8"?>
<svg id="Layer_1" data-name="Layer 1" xmlns="http://www.w3.org/2000/svg" viewBox="0 0 519.22 599.66">
  <polygon points="519.14 349.77 432.68 349.77 432.65 399.77 432.65 399.8 389.4 424.76 432.68 499.69 519.2 449.74 519.22 449.74 519.22 349.83 519.2 349.83 519.14 349.77"/>
  <polygon points="86.54 99.94 86.51 99.94 0 149.91 0 249.88 86.54 249.88 86.54 199.89 86.54 199.86 129.8 174.87 86.54 99.97 86.54 99.94"/>
  <polygon points="259.68 .08 259.6 .03 259.57 0 173.06 49.97 173.06 50 216.31 124.9 259.6 99.97 259.65 100 302.88 124.96 346.14 50.03 346.09 49.97 259.68 .08"/>
  <polygon points="86.54 399.77 86.54 349.77 .05 349.77 0 349.8 0 449.72 .05 449.74 86.54 499.69 129.8 424.76 86.54 399.8 86.54 399.77"/>
  <polygon points="432.68 100 432.65 99.97 389.4 174.93 432.68 199.91 432.68 199.97 432.68 249.88 519.22 249.88 519.22 150.02 519.22 149.94 432.68 100"/>
  <polygon points="259.6 499.72 216.31 474.73 173.06 549.63 173.06 549.66 173.08 549.69 259.6 599.63 259.6 599.66 346.14 549.69 346.14 549.63 302.91 474.73 259.6 499.72"/>
  <polygon points="259.61 399.77 259.61 399.73 346.1 349.78 346.14 349.78 346.14 249.92 259.66 199.93 259.61 199.88 173.09 249.88 173.04 249.88 173.09 349.78 173.09 349.82 259.61 399.77"/>
  <style>
    polygon {
      fill: #edd6a7; 
    }
  </style>
</svg>