<?xml version="1.0" encoding="UTF-8"?>
<svg id="Tracés" xmlns="http://www.w3.org/2000/svg" viewBox="0 0 1114.5 447.85">
  <path d="M759.43,152.61c-19.07,0-28.6,9.68-28.6,29.03v84.54c0,19.4,9.53,29.1,28.6,29.1,19.12-.05,28.67-9.75,28.67-29.1v-52.13h-28.6v19.73h8.67v32.41c0,6.25-2.91,9.37-8.74,9.37s-8.67-3.12-8.67-9.37v-84.54c0-6.25,2.86-9.37,8.59-9.37h.14c5.78.05,8.67,3.17,8.67,9.37v18.6h19.94v-18.6c0-19.35-9.56-29.03-28.67-29.03Z"/>
  <path d="M849.47,154.8h-27.33l-14.09,89.4-6.48,48.82h20.08l3.94-29.31h20.36l3.88,29.31h20.15l-6.48-49.03-14.02-89.19ZM828.12,243.99l7.61-57.49,7.61,57.49h-15.22Z"/>
  <polygon points="928.23 249.48 904.77 154.8 884.83 154.8 884.83 293.02 904.13 293.02 904.13 215.46 921.67 293.02 935.2 293.02 952.25 215.46 952.25 293.02 971.34 293.02 971.34 154.8 951.4 154.8 928.23 249.48"/>
  <polygon points="1044.25 174.45 1044.25 154.8 992.54 154.8 992.54 293.02 1044.25 293.02 1044.25 273.36 1012.48 273.36 1012.48 233.77 1039.81 233.77 1039.81 214.05 1012.48 214.05 1012.48 174.45 1044.25 174.45"/>
  <polygon points="90.19 154.8 70.25 154.8 70.25 293.02 121.96 293.02 121.96 273.36 90.19 273.36 90.19 154.8"/>
  <path d="M178.39,154.8h-27.33l-14.09,89.4-6.48,48.82h20.08l3.94-29.31h20.36l3.88,29.31h20.15l-6.48-49.03-14.02-89.19ZM157.04,243.99l7.61-57.49,7.61,57.49h-15.22Z"/>
  <path d="M240.94,152.61c-19.07,0-28.6,9.68-28.6,29.03v12.96c0,12.73,6.22,23.53,18.67,32.41,12.45,8.92,18.67,16.72,18.67,23.39v15.78c0,6.25-2.89,9.37-8.67,9.37s-8.74-3.12-8.74-9.37v-18.6h-19.94v18.6c0,19.35,9.56,29.05,28.67,29.1,19.07,0,28.6-9.7,28.6-29.1v-17.47c0-12.4-6.22-23.04-18.67-31.91-12.45-8.92-18.67-16.46-18.67-22.62v-12.54c0-6.25,2.86-9.37,8.59-9.37h.14c5.78.05,8.67,3.17,8.67,9.37v18.6h19.94v-18.6c0-19.35-9.56-29.03-28.67-29.03Z"/>
  <polygon points="289.41 293.02 341.12 293.02 341.12 273.36 309.35 273.36 309.35 233.77 336.68 233.77 336.68 214.05 309.35 214.05 309.35 174.45 341.12 174.45 341.12 154.8 289.41 154.8 289.41 293.02"/>
  <path d="M414.39,204.68v-20.78c0-19.35-8.85-29.05-26.56-29.1h-29.03v138.22h19.94v-60.45l2.54-.35,17.96,60.8h21.84l-22.4-64.32c10.47-3.85,15.71-11.86,15.71-24.02ZM394.45,204.68c0,4.41-1.81,7.35-5.42,8.81-1.03.38-2.94.56-5.71.56h-4.58v-39.59h7.04c5.78,0,8.67,3.15,8.67,9.44v20.78Z"/>
  <polygon points="692.61 246.93 652.75 246.93 652.73 270 632.79 281.5 652.75 316.05 692.63 293.02 692.64 246.96 692.63 246.96 692.61 246.93"/>
  <polygon points="493.16 131.76 493.15 131.76 453.27 154.79 453.27 200.88 493.16 200.88 493.16 177.82 513.11 166.3 493.16 131.77 493.16 131.76"/>
  <polygon points="572.99 85.72 533.05 108.72 533.05 108.73 552.99 143.26 572.95 131.77 592.9 143.29 612.85 108.74 612.82 108.72 572.99 85.72"/>
  <polygon points="493.16 246.93 453.29 246.93 453.27 246.95 453.27 293.01 493.16 316.05 513.11 281.5 493.16 270 493.16 246.93"/>
  <polygon points="652.73 131.77 632.79 166.33 652.75 177.84 652.75 200.88 692.64 200.88 692.64 154.81 652.75 131.78 652.73 131.77"/>
  <polygon points="572.95 316.06 552.99 304.54 533.05 339.08 533.05 339.09 533.06 339.1 572.95 362.14 612.85 339.1 612.85 339.08 592.92 304.54 572.95 316.06"/>
  <polygon points="572.97 177.84 572.95 177.83 533.06 200.88 533.06 246.95 572.96 269.96 612.85 246.93 612.85 200.9 572.97 177.84"/>
</svg>